<svg xmlns="http://www.w3.org/2000/svg" xmlns:xlink="http://www.w3.org/1999/xlink" width="1920" zoomAndPan="magnify"
    viewBox="0 0 1440 809.999993" height="1080" preserveAspectRatio="xMidYMid meet" version="1.0">
    <defs>
        <clipPath id="50e8418426">
            <path d="M 980 390 L 1205.65625 390 L 1205.65625 501 L 980 501 Z M 980 390 " clip-rule="nonzero" />
        </clipPath>
        <clipPath id="f60d7b9804">
            <path d="M 946 9.914062 L 1149 9.914062 L 1149 470 L 946 470 Z M 946 9.914062 " clip-rule="nonzero" />
        </clipPath>
    </defs>
    <g clip-path="url(#50e8418426)">
        <path fill="#a8c082"
            d="M 980.304688 500.101562 C 1000.914062 460.726562 1034.792969 428.421875 1075.148438 409.65625 C 1115.519531 390.910156 1162.097656 385.808594 1205.585938 395.398438 C 1152.289062 462.027344 1065.699219 503.289062 980.304688 500.101562 "
            fill-opacity="1" fill-rule="nonzero" />
    </g>
    <path fill="#a8c082"
        d="M 911.828125 471.3125 C 935.824219 407.195312 938.011719 335.191406 917.980469 269.738281 C 897.929688 204.300781 855.785156 145.816406 799.976562 106.003906 C 778.367188 235.554688 820.1875 377.011719 911.828125 471.3125 "
        fill-opacity="1" fill-rule="nonzero" />
    <g clip-path="url(#f60d7b9804)">
        <path fill="#a8c082"
            d="M 960.507812 469.410156 C 936.875 383.761719 942.339844 290.402344 975.796875 208.085938 C 1009.257812 125.765625 1070.515625 54.953125 1147.261719 9.914062 C 1160.269531 179.890625 1089.859375 357.992188 960.507812 469.410156 "
            fill-opacity="1" fill-rule="nonzero" />
    </g>
    <path fill="#f0eada"
        d="M 348.898438 419 C 342.53125 419 338.601562 415.996094 337.101562 409.953125 C 335.617188 403.871094 337.570312 399.3125 342.964844 396.269531 C 351.757812 392.074219 359.324219 386.5 365.691406 379.550781 C 368.097656 377.089844 370.976562 375.859375 374.304688 375.859375 C 377.636719 375.859375 380.351562 376.925781 382.484375 379.042969 C 384.894531 381.46875 386.175781 384.328125 386.324219 387.65625 C 386.46875 390.988281 385.328125 393.863281 382.921875 396.269531 C 374.757812 405.066406 365.222656 412.179688 354.328125 417.625 C 352.554688 418.546875 350.746094 419 348.898438 419 Z M 597.105469 451.210938 C 599.515625 453.347656 600.726562 456.0625 600.726562 459.390625 C 601.015625 462.71875 599.949219 465.597656 597.542969 468.003906 C 582.722656 482.191406 565.78125 492.089844 546.726562 497.683594 C 527.652344 503.292969 508.363281 504.523438 488.820312 501.375 C 469.3125 498.1875 451.269531 490.550781 434.675781 478.429688 C 432.828125 477.234375 431.164062 477.378906 429.679688 478.863281 C 408.492188 499.417969 388.675781 521.351562 370.253906 544.660156 C 368.984375 546.164062 368.082031 547.972656 367.503906 550.089844 C 363.882812 568.238281 359.648438 587.042969 354.835938 606.550781 C 349.96875 626.09375 344.738281 645.074219 339.128906 663.515625 C 333.535156 681.992188 327.726562 698.929688 321.683594 714.332031 C 315.601562 729.765625 309.558594 742.777344 303.515625 753.347656 C 297.488281 763.949219 291.425781 771.082031 285.34375 774.699219 C 281.726562 776.816406 277.960938 777.882812 274.054688 777.882812 C 268.316406 777.59375 263.324219 775.316406 259.070312 771.082031 C 249.082031 760.457031 244.703125 747.917969 245.894531 733.441406 C 246.527344 716.792969 251.453125 697.484375 260.664062 675.53125 C 269.890625 653.617188 281.90625 630.796875 296.710938 607.054688 C 311.53125 583.3125 327.546875 560.402344 344.773438 538.289062 C 346.910156 535.59375 348.429688 532.425781 349.332031 528.808594 C 356.625 501.589844 360.265625 473.921875 360.265625 445.78125 C 359.628906 442.742188 360.136719 439.882812 361.785156 437.167969 C 363.46875 434.417969 365.980469 432.589844 369.3125 431.667969 C 372.351562 430.796875 375.285156 431.289062 378.144531 433.113281 C 381.039062 434.90625 382.777344 437.296875 383.355469 440.28125 C 383.96875 455.15625 382.777344 469.8125 379.734375 484.292969 C 379.445312 486.425781 380.1875 487.945312 381.980469 488.851562 C 384.097656 489.773438 385.925781 489.484375 387.480469 487.984375 C 399.242188 475.242188 410.136719 464.203125 420.125 454.832031 C 423.167969 452.132812 426.570312 450.703125 430.332031 450.558594 C 434.097656 450.378906 437.644531 451.339844 440.972656 453.457031 C 456.699219 465.289062 471.519531 472.925781 485.417969 476.402344 C 499.351562 479.875 512.074219 480.796875 523.5625 479.152344 C 535.039062 477.46875 544.863281 474.5 553.023438 470.25 C 561.222656 466.015625 567.664062 461.925781 572.351562 458.015625 C 577.019531 454.070312 579.679688 451.933594 580.3125 451.644531 C 582.375 449.238281 585.089844 448.027344 588.421875 448.027344 C 591.75 447.738281 594.644531 448.804688 597.105469 451.210938 Z M 274.921875 753.347656 C 278.542969 750.632812 282.722656 744.371094 287.445312 734.527344 C 292.132812 724.71875 297.199219 712.320312 302.644531 697.320312 C 308.054688 682.355469 313.414062 666.011719 318.714844 648.316406 C 324.035156 630.652344 329.101562 612.574219 333.914062 594.097656 C 321.808594 611.941406 311.007812 629.496094 301.488281 646.722656 C 291.933594 663.988281 284.386719 680.109375 278.832031 695.074219 C 273.238281 710.023438 270.269531 723.105469 269.925781 734.308594 C 269.023438 741.257812 270.6875 747.589844 274.921875 753.347656 Z M 274.921875 753.347656 "
        fill-opacity="1" fill-rule="nonzero" />
    <path fill="#f0eada"
        d="M 959.570312 463.011719 C 961.6875 465.433594 962.757812 468.292969 962.757812 471.625 C 962.46875 474.953125 961.109375 477.6875 958.703125 479.804688 C 957.78125 480.726562 953.308594 484.507812 945.3125 491.167969 C 937.296875 497.789062 926.707031 505.625 913.535156 514.691406 C 900.359375 523.777344 885.523438 532.625 869.019531 541.257812 C 852.550781 549.90625 835.179688 556.804688 816.902344 561.960938 C 798.605469 567.082031 780.292969 569.035156 761.960938 567.824219 C 743.664062 566.628906 726.203125 560.566406 709.554688 549.65625 C 696.851562 541.511719 686.714844 530.90625 679.152344 517.878906 C 677.070312 514.257812 673.757812 512.304688 669.234375 512.015625 C 664.984375 511.726562 661.652344 513.390625 659.246094 517.007812 C 652.585938 527 645.3125 536.460938 637.457031 545.382812 C 629.585938 554.269531 621.550781 561.433594 613.355469 566.882812 C 605.191406 572.347656 597.359375 575.207031 589.828125 575.496094 L 589.324219 575.496094 C 583.910156 575.207031 578.882812 573.46875 574.195312 570.285156 C 569.472656 567.097656 566.050781 562.957031 563.914062 557.835938 C 554.847656 535.160156 556.226562 513.082031 568.042969 491.601562 C 578.03125 470.71875 592.019531 452.929688 610.023438 438.253906 C 628.011719 423.597656 648.351562 413.535156 671.046875 408.070312 C 675.570312 406.875 679.332031 407.925781 682.335938 411.253906 C 685.667969 414.585938 686.714844 418.53125 685.523438 423.054688 C 684.019531 427.304688 681 430.039062 676.472656 431.234375 C 657.402344 435.773438 640.300781 444.171875 625.152344 456.421875 C 610.042969 468.691406 598.261719 483.75 589.828125 501.589844 C 581.324219 516.121094 579.820312 531.234375 585.269531 546.902344 C 587.097656 549.945312 588.453125 551.464844 589.324219 551.464844 C 592.074219 553.308594 596.144531 551.429688 601.554688 545.820312 C 607.003906 540.226562 613.210938 532.28125 620.160156 522.003906 C 627.144531 511.726562 634.054688 500.398438 640.859375 487.984375 C 647.664062 475.585938 653.78125 463.480469 659.246094 451.644531 C 661.652344 446.199219 665.871094 443.9375 671.914062 444.839844 C 677.648438 445.765625 680.980469 449.09375 681.902344 454.832031 C 681.902344 455.121094 682.5 458.070312 683.710938 463.660156 C 684.90625 469.269531 687.042969 476.164062 690.082031 484.363281 C 693.121094 492.523438 697.265625 500.757812 702.53125 509.046875 C 707.835938 517.351562 714.566406 524.230469 722.726562 529.675781 C 736.625 539.085938 751.644531 544.007812 767.824219 544.441406 C 784.039062 544.878906 800.289062 542.46875 816.609375 537.203125 C 832.96875 531.902344 848.625 525.242188 863.589844 517.226562 C 878.589844 509.226562 891.980469 500.992188 903.761719 492.542969 C 915.578125 484.054688 924.972656 476.945312 931.921875 471.191406 C 938.871094 465.453125 942.488281 462.414062 942.777344 462.070312 C 945.183594 459.953125 948.0625 458.992188 951.390625 459.171875 C 954.722656 459.320312 957.4375 460.601562 959.570312 463.011719 Z M 959.570312 463.011719 "
        fill-opacity="1" fill-rule="nonzero" />
</svg>